<?xml version="1.0" encoding="UTF-8" standalone="no"?>
<svg xmlns="http://www.w3.org/2000/svg" viewbox="0 0 16 16">
  <g id="qr-symbol" transform="matrix(.68054 .68054 -.68054 .68054 10.133 -2.9385)">
    <path fill="#f05050" d="m8.9171 12.037h1.5538c0.8525 0 1.54 0.6875 1.54 1.5538 0 0.8525-0.6875 1.54-1.54 1.54s-1.5538-0.6875-1.5538-1.54v-1.5538zm-4.895 0v1.5538c0 0.8525-0.70125 1.54-1.5538 1.54-0.8525 0-1.54-0.6875-1.54-1.54 0-0.86625 0.6875-1.5538 1.54-1.5538h1.5538zm4.29-4.2625v3.6575h-3.685v-3.6575h3.685zm0.605-0.605v-1.5538c0-0.8525 0.70125-1.54 1.5538-1.54 0.8525 0 1.54 0.6875 1.54 1.54 0 0.86625-0.6875 1.5538-1.54 1.5538h-1.5538zm-4.895 0h-1.5538c-0.8525 0-1.54-0.6875-1.54-1.5538 0-0.8525 0.6875-1.54 1.54-1.54s1.5538 0.6875 1.5538 1.54v1.5538zm4.29 0h-3.685v-1.5538c0-1.1825-0.9625-2.145-2.1588-2.145-1.1825 0-2.145 0.9625-2.145 2.145 0 1.1962 0.9625 2.1588 2.145 2.1588h1.5538v3.6575h-1.5538c-1.1825 0-2.145 0.9625-2.145 2.1588 0 1.1825 0.9625 2.145 2.145 2.145 1.1962 0 2.1588-0.9625 2.1588-2.145v-1.5538h3.685v1.5538c0 1.1825 0.9625 2.145 2.1588 2.145 1.1825 0 2.145-0.9625 2.145-2.145 0-1.1962-0.9625-2.1588-2.145-2.1588h-1.5538v-3.6575h1.5538c1.1825 0 2.145-0.9625 2.145-2.1588 0-1.1825-0.9625-2.145-2.145-2.145-1.1963 0-2.1588 0.9625-2.1588 2.145v1.5538z"/>
  </g>
</svg>